<?xml version="1.0" standalone="no"?>
<!DOCTYPE svg PUBLIC "-//W3C//DTD SVG 20010904//EN"
 "http://www.w3.org/TR/2001/REC-SVG-20010904/DTD/svg10.dtd">
<svg version="1.0" xmlns="http://www.w3.org/2000/svg"
 width="1680.000000pt" height="1680.000000pt" viewBox="0 0 1680.000000 1680.000000"
 preserveAspectRatio="xMidYMid meet">
<metadata>
Created by potrace 1.11, written by Peter Selinger 2001-2013
</metadata>
<g transform="translate(0.000000,1680.000000) scale(0.100000,-0.100000)"
fill="#000000" stroke="none">
<path d="M0 8400 l0 -8250 8400 0 8400 0 0 8250 0 8250 -8400 0 -8400 0 0
-8250z m7544 5955 c251 -432 456 -789 456 -793 0 -7 -3258 -5720 -4340 -7612
l-169 -295 3307 -3 3308 -2 450 -789 451 -789 -1581 -6 c-870 -4 -3177 -6
-5127 -4 l-3546 3 611 1070 c336 589 1759 3080 3161 5537 1403 2458 2553 4468
2556 4468 4 0 212 -353 463 -785z m4697 -3770 c1442 -2486 2879 -4963 3193
-5505 l572 -985 -916 -3 c-503 -1 -916 1 -918 5 -14 34 -4559 7856 -4565 7857
-4 0 -760 -1296 -1680 -2881 l-1672 -2883 -914 0 c-799 0 -912 2 -908 15 4 8
952 1645 2108 3637 1156 1993 2318 3996 2582 4451 264 455 484 824 488 820 4
-4 1188 -2042 2630 -4528z m393 -5080 c1099 -1925 2007 -3515 2019 -3534 l20
-34 -6151 5 c-3384 3 -6155 7 -6158 10 -3 3 201 360 452 794 l458 787 4355 -6
c2396 -3 4345 -3 4331 2 -19 5 -60 69 -196 306 -2291 4014 -3085 5407 -3090
5419 -3 9 183 339 452 804 l458 789 527 -921 c289 -506 1425 -2496 2523 -4421z"/>
</g>
</svg>
