<?xml version="1.0" standalone="no"?>
<!DOCTYPE svg PUBLIC "-//W3C//DTD SVG 20010904//EN"
 "http://www.w3.org/TR/2001/REC-SVG-20010904/DTD/svg10.dtd">
<svg version="1.0" xmlns="http://www.w3.org/2000/svg"
 width="400.000000pt" height="400.000000pt" viewBox="0 0 400.000000 400.000000"
 preserveAspectRatio="xMidYMid meet">
<metadata>
Created by potrace 1.11, written by Peter Selinger 2001-2013
</metadata>
<g transform="translate(0.000000,400.000000) scale(0.100000,-0.100000)"
fill="#000000" stroke="none">
<path d="M1440 3098 c-151 -265 -279 -490 -285 -500 -5 -9 -19 -34 -31 -55
-12 -21 -73 -128 -136 -238 -63 -110 -126 -220 -140 -245 -14 -25 -168 -294
-342 -599 -174 -305 -314 -556 -311 -559 6 -7 2465 -6 2471 1 3 3 -12 36 -34
74 -22 37 -54 93 -70 123 -17 30 -48 84 -69 120 l-38 65 -797 0 c-439 0 -798
2 -798 5 0 3 41 77 91 165 50 88 101 178 113 200 59 104 717 1255 782 1368 41
71 74 131 74 135 0 3 7 13 15 22 14 16 11 24 -31 96 -26 44 -54 93 -63 109
-52 95 -114 195 -119 195 -4 0 -131 -217 -282 -482z"/>
<path d="M2274 3484 c-53 -92 -111 -191 -245 -422 -30 -51 -63 -110 -75 -130
-11 -20 -71 -125 -134 -232 -129 -221 -205 -353 -342 -590 -53 -91 -164 -282
-247 -424 -83 -143 -151 -263 -151 -267 0 -13 426 -9 442 4 9 7 84 131 168
277 207 359 329 569 350 605 10 17 79 137 155 268 76 131 139 237 140 235 1
-2 127 -219 280 -483 153 -264 332 -572 398 -685 66 -113 129 -221 140 -240
10 -19 80 -139 154 -266 l134 -232 224 1 224 0 -24 41 c-12 23 -112 194 -221
381 -108 187 -206 356 -217 375 -20 36 -97 168 -252 435 -48 83 -97 166 -107
185 -40 70 -391 676 -418 720 -15 25 -89 153 -165 285 -76 132 -141 244 -146
249 -4 4 -33 -36 -65 -90z"/>
<path d="M2320 2543 c0 -5 -49 -93 -110 -197 -67 -116 -106 -194 -101 -200 5
-6 21 -33 37 -61 15 -27 35 -63 45 -80 10 -16 26 -46 37 -65 11 -19 99 -174
197 -345 98 -170 189 -330 203 -355 29 -52 111 -195 129 -225 7 -11 15 -27 19
-35 4 -8 17 -31 29 -50 29 -46 85 -150 85 -156 0 -3 -460 -4 -1022 -4 -563 1
-1034 1 -1048 0 -16 0 -31 -10 -41 -28 -29 -49 -161 -276 -180 -310 -11 -18
-17 -37 -15 -41 5 -8 2976 -12 2976 -4 0 3 -47 87 -104 187 -57 99 -113 198
-125 219 -12 20 -31 54 -43 75 -12 20 -40 71 -63 112 -23 41 -57 100 -75 130
-18 30 -45 78 -60 105 -16 28 -60 106 -100 175 -40 69 -82 143 -94 165 -13 22
-105 184 -206 360 -100 176 -192 336 -203 355 -153 271 -167 294 -167 273z"/>
</g>
</svg>
